<svg width="359" height="182" viewBox="0 0 359 182" fill="none" xmlns="http://www.w3.org/2000/svg">
<g clip-path="url(#clip0_1_13)">
<path d="M182.9 159.977H151.7L104.3 33.3766H121.7L74.3 159.977H43.1L96.8 21.6766H129.2L182.9 159.977Z" fill="black"/>
<path d="M149.9 159.977H118.7L71.3 33.3766H88.7L41.3 159.977H10.1L63.8 21.6766H96.2L149.9 159.977Z" fill="#FF66C4"/>
<path d="M193.189 91L197.34 48.0312H211.915L215.992 91H207.862L207.252 84.0664H202.076L201.539 91H193.189ZM202.687 77.2061H206.593L204.713 55.3555H204.322L202.687 77.2061ZM223.506 91V83.1875L233.345 55.9414H224.458V48.0312H242.402V55.5508L232.393 83.0898H241.987V91H223.506ZM254.823 91V56.2832H249.721V48.0312H268.52V56.2832H263.417V91H254.823ZM275.105 91L279.256 48.0312H293.831L297.908 91H289.778L289.168 84.0664H283.992L283.455 91H275.105ZM284.603 77.2061H288.509L286.629 55.3555H286.238L284.603 77.2061ZM306.545 91V48.0312H315.383L319.338 68.6123V48.0312H327.639V91H319.24L314.943 69.5156V91H306.545Z" fill="black"/>
<path d="M209.861 108.622H215.383C217.07 108.622 218.544 108.93 219.805 109.546C221.067 110.162 222.035 111.049 222.709 112.208C223.399 113.352 223.743 114.694 223.743 116.234C223.743 118.786 222.995 120.722 221.499 122.042C220.003 123.347 217.928 124 215.273 124H209.861V108.622ZM215.603 120.722C216.938 120.722 217.957 120.319 218.661 119.512C219.38 118.705 219.739 117.613 219.739 116.234C219.739 114.973 219.38 113.939 218.661 113.132C217.957 112.311 216.982 111.9 215.735 111.9H213.755V120.722H215.603ZM228.147 108.622H239.059V111.9H232.041V114.782H237.167V117.84H232.041V120.722H239.059V124H228.147V108.622ZM248.264 124.33C247.296 124.33 246.336 124.235 245.382 124.044C244.429 123.868 243.644 123.619 243.028 123.296V119.798C243.82 120.209 244.642 120.517 245.492 120.722C246.358 120.927 247.179 121.03 247.956 121.03C248.675 121.03 249.218 120.92 249.584 120.7C249.951 120.48 250.134 120.165 250.134 119.754C250.134 119.446 250.032 119.182 249.826 118.962C249.636 118.727 249.35 118.515 248.968 118.324C248.587 118.133 247.993 117.869 247.186 117.532C245.764 116.931 244.73 116.263 244.084 115.53C243.439 114.797 243.116 113.895 243.116 112.824C243.116 111.944 243.358 111.159 243.842 110.47C244.341 109.781 245.03 109.245 245.91 108.864C246.79 108.483 247.802 108.292 248.946 108.292C249.885 108.292 250.721 108.365 251.454 108.512C252.188 108.659 252.892 108.893 253.566 109.216V112.626C252.276 111.951 250.978 111.614 249.672 111.614C248.968 111.614 248.404 111.731 247.978 111.966C247.568 112.186 247.362 112.509 247.362 112.934C247.362 113.359 247.575 113.704 248 113.968C248.426 114.232 249.21 114.591 250.354 115.046C251.396 115.471 252.202 115.889 252.774 116.3C253.361 116.711 253.786 117.187 254.05 117.73C254.314 118.273 254.446 118.962 254.446 119.798C254.446 121.221 253.926 122.335 252.884 123.142C251.858 123.934 250.318 124.33 248.264 124.33ZM258.854 108.622H262.748V124H258.854V108.622ZM275.521 124.33C273.849 124.33 272.375 124.007 271.099 123.362C269.837 122.717 268.862 121.793 268.173 120.59C267.483 119.373 267.139 117.95 267.139 116.322C267.139 114.694 267.483 113.279 268.173 112.076C268.862 110.859 269.837 109.927 271.099 109.282C272.375 108.622 273.849 108.292 275.521 108.292C276.635 108.292 277.618 108.402 278.469 108.622C279.334 108.827 280.133 109.165 280.867 109.634V113.33C280.221 112.817 279.488 112.45 278.667 112.23C277.86 111.995 276.929 111.878 275.873 111.878C274.963 111.878 274.149 112.061 273.431 112.428C272.727 112.78 272.169 113.293 271.759 113.968C271.348 114.643 271.143 115.427 271.143 116.322C271.143 117.715 271.546 118.815 272.353 119.622C273.174 120.429 274.281 120.832 275.675 120.832C276.452 120.832 277.105 120.7 277.633 120.436V117.972H275.279V115.244H281.329V122.9C279.759 123.853 277.823 124.33 275.521 124.33ZM285.736 108.622H289.586L295.24 117.774V108.622H299.134V124H295.306L289.63 114.826V124H285.736V108.622Z" fill="#FF66C4"/>
</g>
<defs>
<clipPath id="clip0_1_13">
<rect width="359" height="182" fill="white"/>
</clipPath>
</defs>
</svg>
