<svg width="341" height="182" viewBox="0 0 341 182" fill="none" xmlns="http://www.w3.org/2000/svg">
<g clip-path="url(#clip0_1_22)">
<path d="M183.402 93L187.386 51.75H201.378L205.292 93H197.488L196.902 86.3438H191.933L191.417 93H183.402ZM192.519 79.7578H196.269L194.464 58.7812H194.089L192.519 79.7578ZM212.506 93V85.5L221.951 59.3438H213.42V51.75H230.646V58.9688L221.037 85.4062H230.248V93H212.506ZM242.57 93V59.6719H237.672V51.75H255.719V59.6719H250.82V93H242.57ZM262.041 93L266.026 51.75H280.018L283.932 93H276.127L275.541 86.3438H270.572L270.057 93H262.041ZM271.158 79.7578H274.908L273.104 58.7812H272.729L271.158 79.7578ZM292.223 93V51.75H300.707L304.504 71.5078V51.75H312.473V93H304.411L300.286 72.375V93H292.223Z" fill="white"/>
<path d="M199.803 105.224H205.827C207.667 105.224 209.275 105.56 210.651 106.232C212.027 106.904 213.083 107.872 213.819 109.136C214.571 110.384 214.947 111.848 214.947 113.528C214.947 116.312 214.131 118.424 212.499 119.864C210.867 121.288 208.603 122 205.707 122H199.803V105.224ZM206.067 118.424C207.523 118.424 208.635 117.984 209.403 117.104C210.187 116.224 210.579 115.032 210.579 113.528C210.579 112.152 210.187 111.024 209.403 110.144C208.635 109.248 207.571 108.8 206.211 108.8H204.051V118.424H206.067ZM219.752 105.224H231.656V108.8H224V111.944H229.592V115.28H224V118.424H231.656V122H219.752V105.224ZM241.697 122.36C240.641 122.36 239.593 122.256 238.553 122.048C237.513 121.856 236.657 121.584 235.985 121.232V117.416C236.849 117.864 237.745 118.2 238.673 118.424C239.617 118.648 240.513 118.76 241.361 118.76C242.145 118.76 242.737 118.64 243.137 118.4C243.537 118.16 243.737 117.816 243.737 117.368C243.737 117.032 243.625 116.744 243.401 116.504C243.193 116.248 242.881 116.016 242.465 115.808C242.049 115.6 241.401 115.312 240.521 114.944C238.969 114.288 237.841 113.56 237.137 112.76C236.433 111.96 236.081 110.976 236.081 109.808C236.081 108.848 236.345 107.992 236.873 107.24C237.417 106.488 238.169 105.904 239.129 105.488C240.089 105.072 241.193 104.864 242.441 104.864C243.465 104.864 244.377 104.944 245.177 105.104C245.977 105.264 246.745 105.52 247.481 105.872V109.592C246.073 108.856 244.657 108.488 243.233 108.488C242.465 108.488 241.849 108.616 241.385 108.872C240.937 109.112 240.713 109.464 240.713 109.928C240.713 110.392 240.945 110.768 241.409 111.056C241.873 111.344 242.729 111.736 243.977 112.232C245.113 112.696 245.993 113.152 246.617 113.6C247.257 114.048 247.721 114.568 248.009 115.16C248.297 115.752 248.441 116.504 248.441 117.416C248.441 118.968 247.873 120.184 246.737 121.064C245.617 121.928 243.937 122.36 241.697 122.36ZM253.249 105.224H257.497V122H253.249V105.224ZM271.432 122.36C269.608 122.36 268 122.008 266.608 121.304C265.232 120.6 264.168 119.592 263.416 118.28C262.664 116.952 262.288 115.4 262.288 113.624C262.288 111.848 262.664 110.304 263.416 108.992C264.168 107.664 265.232 106.648 266.608 105.944C268 105.224 269.608 104.864 271.432 104.864C272.648 104.864 273.72 104.984 274.648 105.224C275.592 105.448 276.464 105.816 277.264 106.328V110.36C276.56 109.8 275.76 109.4 274.864 109.16C273.984 108.904 272.968 108.776 271.816 108.776C270.824 108.776 269.936 108.976 269.152 109.376C268.384 109.76 267.776 110.32 267.328 111.056C266.88 111.792 266.656 112.648 266.656 113.624C266.656 115.144 267.096 116.344 267.976 117.224C268.872 118.104 270.08 118.544 271.6 118.544C272.448 118.544 273.16 118.4 273.736 118.112V115.424H271.168V112.448H277.768V120.8C276.056 121.84 273.944 122.36 271.432 122.36ZM282.575 105.224H286.775L292.943 115.208V105.224H297.191V122H293.015L286.823 111.992V122H282.575V105.224Z" fill="#FF66C4"/>
<path d="M189.9 151.977H158.7L111.3 25.3766H128.7L81.3 151.977H50.1L103.8 13.6766H136.2L189.9 151.977Z" fill="white"/>
<path d="M156.9 151.977H125.7L78.3 25.3766H95.7L48.3 151.977H17.1L70.8 13.6766H103.2L156.9 151.977Z" fill="#FF66C4"/>
</g>
<defs>
<clipPath id="clip0_1_22">
<rect width="341" height="182" fill="white"/>
</clipPath>
</defs>
</svg>
